{"accessors" : [{"bufferView" : 0, "byteOffset" : 0, "componentType" : 5123, "count" : 96, "type" : "SCALAR", "max" : [95], "min" : [0]}, {"bufferView" : 1, "byteOffset" : 0, "componentType" : 5126, "count" : 96, "type" : "VEC3", "max" : [53, 107.5, 100], "min" : [-53, -103.93812561035156, -100.00000762939453], "name" : "POSITION"}, {"bufferView" : 1, "byteOffset" : 12, "componentType" : 5126, "count" : 96, "type" : "VEC3", "max" : [0.5773528814315796, 0.5773528814315796, 0.9045379161834717], "min" : [-0.5773528814315796, -0.5773530006408691, -0.9045382738113403], "name" : "NORMAL"}, {"bufferView" : 1, "byteOffset" : 24, "componentType" : 5126, "count" : 96, "type" : "VEC2", "max" : [3, 2.0590715408325195], "min" : [3.3527612686157227E-08, -1.1125000715255737], "name" : "TEXCOORD_0"}, {"bufferView" : 0, "byteOffset" : 192, "componentType" : 5123, "count" : 348, "type" : "SCALAR", "max" : [347], "min" : [0]}, {"bufferView" : 2, "byteOffset" : 0, "componentType" : 5126, "count" : 348, "type" : "VEC3", "max" : [4.477054595947266, 9.998756408691406, 0.16085436940193176], "min" : [-4.477054595947266, -9.998756408691406, -0.7402291297912598], "name" : "POSITION"}, {"bufferView" : 2, "byteOffset" : 12, "componentType" : 5126, "count" : 348, "type" : "VEC3", "max" : [1.0000044107437134, 1.0000044107437134, 1.0000044107437134], "min" : [-1.0000044107437134, -1.0000044107437134, -1.0000044107437134], "name" : "NORMAL"}, {"bufferView" : 2, "byteOffset" : 24, "componentType" : 5126, "count" : 348, "type" : "VEC2", "max" : [1, -2.9802322387695312E-08], "min" : [0, -1], "name" : "TEXCOORD_0"}, {"bufferView" : 0, "byteOffset" : 888, "componentType" : 5123, "count" : 14088, "type" : "SCALAR", "max" : [14087], "min" : [0]}, {"bufferView" : 3, "byteOffset" : 0, "componentType" : 5126, "count" : 14088, "type" : "VEC3", "max" : [20.935028076171875, 31.32413101196289, 27.07868194580078], "min" : [-18.064971923828125, -88.67587280273438, -75.02278137207031], "name" : "POSITION"}, {"bufferView" : 3, "byteOffset" : 12, "componentType" : 5126, "count" : 14088, "type" : "VEC3", "max" : [0.9946692585945129, 0.9936676621437073, 1.0000044107437134], "min" : [-0.9946691989898682, -0.993667721748352, -1.0000044107437134], "name" : "NORMAL"}], "asset" : {"generator" : "Aspose.3D 23.2", "version" : "2.0"}, "buffers" : [{"uri" : "data:application/octet-stream;base64,", "byteLength" : 381400}], "bufferViews" : [{"buffer" : 0, "byteOffset" : 0, "byteLength" : 29064, "target" : 34963}, {"buffer" : 0, "byteOffset" : 29068, "byteLength" : 3072, "byteStride" : 32, "target" : 34962}, {"buffer" : 0, "byteOffset" : 32144, "byteLength" : 11136, "byteStride" : 32, "target" : 34962}, {"buffer" : 0, "byteOffset" : 43284, "byteLength" : 338112, "byteStride" : 24, "target" : 34962}], "images" : [{"uri" : "data:image/png;base64,"}], "materials" : [{"name" : "01 - Default", "pbrMetallicRoughness" : {"baseColorFactor" : [0.5882353186607361, 0.5882353186607361, 0.5882353186607361, 1], "baseColorTexture" : {"index" : 0, "texCoord" : 0}, "metallicFactor" : 0, "roughnessFactor" : 0}, "emissiveFactor" : [0, 0, 0], "alphaMode" : "OPAQUE", "doubleSided" : false}, {"name" : "01 - Default", "pbrMetallicRoughness" : {"baseColorFactor" : [0.5882353186607361, 0.5882353186607361, 0.5882353186607361, 1], "baseColorTexture" : {"index" : 0, "texCoord" : 0}, "metallicFactor" : 0, "roughnessFactor" : 0}, "emissiveFactor" : [0, 0, 0], "alphaMode" : "OPAQUE", "doubleSided" : false}, {"name" : "hendle", "pbrMetallicRoughness" : {"baseColorFactor" : [0.6807843446731567, 0.4705882668495178, 0.3137255012989044, 1], "metallicFactor" : 0, "roughnessFactor" : 0}, "emissiveFactor" : [0, 0, 0], "alphaMode" : "OPAQUE", "doubleSided" : false}], "meshes" : [{"primitives" : [{"attributes" : {"POSITION" : 1, "NORMAL" : 2, "TEXCOORD_0" : 3}, "indices" : 0, "material" : 0, "mode" : 4}], "name" : ""}, {"primitives" : [{"attributes" : {"POSITION" : 5, "NORMAL" : 6, "TEXCOORD_0" : 7}, "indices" : 4, "material" : 1, "mode" : 4}], "name" : ""}, {"primitives" : [{"attributes" : {"POSITION" : 9, "NORMAL" : 10}, "indices" : 8, "material" : 2, "mode" : 4}], "name" : ""}], "nodes" : [{"matrix" : [0.098499596118927, 0, 0, 0, 0, 0.09849959611892568, 1.6047621185130427E-08, 0, 0, -7.938913971210663E-10, 0.004872870631515915, 0, -1.588592529296875, -0.484108030796051, -3.4878883361816406, 1], "mesh" : 0, "name" : "aldoor"}, {"matrix" : [1, 0, 0, 0, 0, 0.9999999999999867, 1.6292068760748105E-07, 0, 0, -8.472543549926609E-08, 0.5200409889221123, 0, -1.588592529296875, -0.30868661403656006, -3.30989408493042, 1], "mesh" : 1, "name" : "Box001"}, {"matrix" : [0.014134604435554638, 7.15415331158999E-23, -1.1683619010103142E-06, 0, 1.9035034929963285E-13, 0.01413460634648781, 2.3028197771637407E-09, 0, 1.1683619010102987E-06, -2.302819481567462E-09, 0.01413460443555445, 0, -5.4698486328125, -0.5570182800292969, -3.1498537063598633, 1], "mesh" : 2, "name" : "doorhendle"}], "samplers" : [{"magFilter" : 9729, "minFilter" : 9729, "wrapS" : 10497, "wrapT" : 10497}], "scene" : 0, "scenes" : [{"nodes" : [0, 1, 2]}], "textures" : [{"sampler" : 0, "source" : 0, "name" : "Map #3"}]}